{
  "accessors": [
    {
      "bufferView": 2,
      "componentType": 5126,
      "count": 65532,
      "max": [
        0.3978300094604492,
        0.22569599747657776,
        0.4326440095901489
      ],
      "min": [
        -0.390190988779068,
        -0.22213999927043915,
        -0.2672260105609894
      ],
      "type": "VEC3"
    },
    {
      "bufferView": 2,
      "byteOffset": 786384,
      "componentType": 5126,
      "count": 65532,
      "max": [
        0.9999635219573975,
        0.9999940395355225,
        1.0
      ],
      "min": [
        -0.9999816417694092,
        -0.9999938011169434,
        -0.9999979734420776
      ],
      "type": "VEC3"
    },
    {
      "bufferView": 3,
      "componentType": 5126,
      "count": 65532,
      "max": [
        0.9999765157699585,
        0.9999990463256836,
        0.999967634677887,
        1.0
      ],
      "min": [
        -0.9999906420707703,
        -0.9999997019767761,
        -0.9999952912330627,
        -1.0
      ],
      "type": "VEC4"
    },
    {
      "bufferView": 1,
      "componentType": 5126,
      "count": 65532,
      "max": [
        0.9996050000190735,
        0.9996060132980347
      ],
      "min": [
        0.00039500001003034413,
        0.00039398670196533203
      ],
      "type": "VEC2"
    },
    {
      "bufferView": 1,
      "byteOffset": 524256,
      "componentType": 5126,
      "count": 65532,
      "max": [
        0.9996050000190735,
        0.9996060132980347
      ],
      "min": [
        0.00039500001003034413,
        0.00039398670196533203
      ],
      "type": "VEC2"
    },
    {
      "bufferView": 1,
      "byteOffset": 1048512,
      "componentType": 5126,
      "count": 65532,
      "max": [
        0.9996050000190735,
        0.9996060132980347
      ],
      "min": [
        0.00039500001003034413,
        0.00039398670196533203
      ],
      "type": "VEC2"
    },
    {
      "bufferView": 1,
      "byteOffset": 1572768,
      "componentType": 5126,
      "count": 65532,
      "max": [
        0.9996050000190735,
        0.9996060132980347
      ],
      "min": [
        0.00039500001003034413,
        0.00039398670196533203
      ],
      "type": "VEC2"
    },
    {
      "bufferView": 0,
      "componentType": 5125,
      "count": 309360,
      "type": "SCALAR"
    },
    {
      "bufferView": 2,
      "byteOffset": 1572768,
      "componentType": 5126,
      "count": 65532,
      "max": [
        0.42591699957847595,
        0.17273899912834167,
        0.42741701006889343
      ],
      "min": [
        -0.42591699957847595,
        -0.22213999927043915,
        -0.37817201018333435
      ],
      "type": "VEC3"
    },
    {
      "bufferView": 2,
      "byteOffset": 2359152,
      "componentType": 5126,
      "count": 65532,
      "max": [
        0.9998294711112976,
        0.9999831914901733,
        0.9999943971633911
      ],
      "min": [
        -0.9999934434890747,
        -0.9999963045120239,
        -0.99996018409729
      ],
      "type": "VEC3"
    },
    {
      "bufferView": 3,
      "byteOffset": 1048512,
      "componentType": 5126,
      "count": 65532,
      "max": [
        0.9999729990959167,
        0.9999963641166687,
        0.9999990463256836,
        1.0
      ],
      "min": [
        -0.999984085559845,
        -0.9999958872795105,
        -0.9999542832374573,
        -1.0
      ],
      "type": "VEC4"
    },
    {
      "bufferView": 1,
      "byteOffset": 2097024,
      "componentType": 5126,
      "count": 65532,
      "max": [
        0.9996050000190735,
        0.9996060132980347
      ],
      "min": [
        0.00039500001003034413,
        0.00039398670196533203
      ],
      "type": "VEC2"
    },
    {
      "bufferView": 1,
      "byteOffset": 2621280,
      "componentType": 5126,
      "count": 65532,
      "max": [
        0.9996050000190735,
        0.9996060132980347
      ],
      "min": [
        0.00039500001003034413,
        0.00039398670196533203
      ],
      "type": "VEC2"
    },
    {
      "bufferView": 1,
      "byteOffset": 3145536,
      "componentType": 5126,
      "count": 65532,
      "max": [
        0.9996050000190735,
        0.9996060132980347
      ],
      "min": [
        0.00039500001003034413,
        0.00039398670196533203
      ],
      "type": "VEC2"
    },
    {
      "bufferView": 1,
      "byteOffset": 3669792,
      "componentType": 5126,
      "count": 65532,
      "max": [
        0.9996050000190735,
        0.9996060132980347
      ],
      "min": [
        0.00039500001003034413,
        0.00039398670196533203
      ],
      "type": "VEC2"
    },
    {
      "bufferView": 0,
      "byteOffset": 1237440,
      "componentType": 5125,
      "count": 296898,
      "type": "SCALAR"
    },
    {
      "bufferView": 2,
      "byteOffset": 3145536,
      "componentType": 5126,
      "count": 65532,
      "max": [
        0.42591699957847595,
        0.17668800055980682,
        0.43258699774742126
      ],
      "min": [
        -0.17341600358486176,
        -0.22127200663089752,
        -0.4371599853038788
      ],
      "type": "VEC3"
    },
    {
      "bufferView": 2,
      "byteOffset": 3931920,
      "componentType": 5126,
      "count": 65532,
      "max": [
        0.9999818801879883,
        0.9999973773956299,
        0.9999983310699463
      ],
      "min": [
        -0.999966025352478,
        -0.9999995231628418,
        -0.9998786449432373
      ],
      "type": "VEC3"
    },
    {
      "bufferView": 3,
      "byteOffset": 2097024,
      "componentType": 5126,
      "count": 65532,
      "max": [
        0.999970555305481,
        0.9999988079071045,
        0.9999948143959045,
        1.0
      ],
      "min": [
        -0.9999969005584717,
        -0.9999693036079407,
        -0.9999858736991882,
        -1.0
      ],
      "type": "VEC4"
    },
    {
      "bufferView": 1,
      "byteOffset": 4194048,
      "componentType": 5126,
      "count": 65532,
      "max": [
        0.9996050000190735,
        0.9996060132980347
      ],
      "min": [
        0.00039500001003034413,
        0.00039398670196533203
      ],
      "type": "VEC2"
    },
    {
      "bufferView": 1,
      "byteOffset": 4718304,
      "componentType": 5126,
      "count": 65532,
      "max": [
        0.9996050000190735,
        0.9996060132980347
      ],
      "min": [
        0.00039500001003034413,
        0.00039398670196533203
      ],
      "type": "VEC2"
    },
    {
      "bufferView": 1,
      "byteOffset": 5242560,
      "componentType": 5126,
      "count": 65532,
      "max": [
        0.9996050000190735,
        0.9996060132980347
      ],
      "min": [
        0.00039500001003034413,
        0.00039398670196533203
      ],
      "type": "VEC2"
    },
    {
      "bufferView": 1,
      "byteOffset": 5766816,
      "componentType": 5126,
      "count": 65532,
      "max": [
        0.9996050000190735,
        0.9996060132980347
      ],
      "min": [
        0.00039500001003034413,
        0.00039398670196533203
      ],
      "type": "VEC2"
    },
    {
      "bufferView": 0,
      "byteOffset": 2425032,
      "componentType": 5125,
      "count": 288783,
      "type": "SCALAR"
    },
    {
      "bufferView": 2,
      "byteOffset": 4718304,
      "componentType": 5126,
      "count": 687,
      "max": [
        0.1558080017566681,
        0.16331399977207184,
        0.42378300428390503
      ],
      "min": [
        -0.008209999650716782,
        -0.020822999998927116,
        0.1694840043783188
      ],
      "type": "VEC3"
    },
    {
      "bufferView": 2,
      "byteOffset": 4726548,
      "componentType": 5126,
      "count": 687,
      "max": [
        0.9987398982048035,
        0.9979782700538635,
        0.9990901350975037
      ],
      "min": [
        -0.9852415919303894,
        -0.9973187446594238,
        -0.9968335628509521
      ],
      "type": "VEC3"
    },
    {
      "bufferView": 3,
      "byteOffset": 3145536,
      "componentType": 5126,
      "count": 687,
      "max": [
        0.9993088841438293,
        0.9967207312583923,
        0.993725061416626,
        1.0
      ],
      "min": [
        -0.9993780851364136,
        -0.9942450523376465,
        -0.9989730715751648,
        -1.0
      ],
      "type": "VEC4"
    },
    {
      "bufferView": 1,
      "byteOffset": 6291072,
      "componentType": 5126,
      "count": 687,
      "max": [
        0.9986349940299988,
        0.9586619734764099
      ],
      "min": [
        0.03591199964284897,
        0.007492005825042725
      ],
      "type": "VEC2"
    },
    {
      "bufferView": 1,
      "byteOffset": 6296568,
      "componentType": 5126,
      "count": 687,
      "max": [
        0.9986349940299988,
        0.9586619734764099
      ],
      "min": [
        0.03591199964284897,
        0.007492005825042725
      ],
      "type": "VEC2"
    },
    {
      "bufferView": 1,
      "byteOffset": 6302064,
      "componentType": 5126,
      "count": 687,
      "max": [
        0.9986349940299988,
        0.9586619734764099
      ],
      "min": [
        0.03591199964284897,
        0.007492005825042725
      ],
      "type": "VEC2"
    },
    {
      "bufferView": 1,
      "byteOffset": 6307560,
      "componentType": 5126,
      "count": 687,
      "max": [
        0.9986349940299988,
        0.9586619734764099
      ],
      "min": [
        0.03591199964284897,
        0.007492005825042725
      ],
      "type": "VEC2"
    },
    {
      "bufferView": 0,
      "byteOffset": 3580164,
      "componentType": 5125,
      "count": 1635,
      "type": "SCALAR"
    }
  ],
  "asset": {
    "extras": {
      "author": "Jonas_Hilschmann (https://sketchfab.com/Jonas.Hilschmann)",
      "license": "CC-BY-4.0 (http://creativecommons.org/licenses/by/4.0/)",
      "source": "https://sketchfab.com/3d-models/dark-elf-a388064c9df8487e9dbf5f51d4212cae",
      "title": "dark Elf"
    },
    "generator": "Sketchfab-16.72.0",
    "version": "2.0"
  },
  "bufferViews": [
    {
      "buffer": 0,
      "byteLength": 3586704,
      "name": "floatBufferViews",
      "target": 34963
    },
    {
      "buffer": 0,
      "byteLength": 6313056,
      "byteOffset": 3586704,
      "byteStride": 8,
      "name": "floatBufferViews",
      "target": 34962
    },
    {
      "buffer": 0,
      "byteLength": 4734792,
      "byteOffset": 9899760,
      "byteStride": 12,
      "name": "floatBufferViews",
      "target": 34962
    },
    {
      "buffer": 0,
      "byteLength": 3156528,
      "byteOffset": 14634552,
      "byteStride": 16,
      "name": "floatBufferViews",
      "target": 34962
    }
  ],
  "buffers": [
    {
      "byteLength": 17791080,
      "uri": "scene.bin"
    }
  ],
  "extensionsUsed": [
    "KHR_materials_specular"
  ],
  "images": [
    {
      "uri": "textures/Material.001_baseColor.png"
    },
    {
      "uri": "textures/Material.001_metallicRoughness.png"
    },
    {
      "uri": "textures/Material.001_normal.png"
    }
  ],
  "materials": [
    {
      "doubleSided": true,
      "extensions": {
        "KHR_materials_specular": {
          "specularColorFactor": [
            1.0,
            1.0,
            1.0
          ],
          "specularFactor": 1.0
        }
      },
      "name": "Material.001",
      "normalTexture": {
        "index": 2,
        "texCoord": 2
      },
      "pbrMetallicRoughness": {
        "baseColorTexture": {
          "index": 0
        },
        "metallicRoughnessTexture": {
          "index": 1,
          "texCoord": 1
        }
      }
    }
  ],
  "meshes": [
    {
      "name": "Object_0",
      "primitives": [
        {
          "attributes": {
            "NORMAL": 1,
            "POSITION": 0,
            "TANGENT": 2,
            "TEXCOORD_0": 3,
            "TEXCOORD_1": 4,
            "TEXCOORD_2": 5,
            "TEXCOORD_3": 6
          },
          "indices": 7,
          "material": 0,
          "mode": 4
        }
      ]
    },
    {
      "name": "Object_1",
      "primitives": [
        {
          "attributes": {
            "NORMAL": 9,
            "POSITION": 8,
            "TANGENT": 10,
            "TEXCOORD_0": 11,
            "TEXCOORD_1": 12,
            "TEXCOORD_2": 13,
            "TEXCOORD_3": 14
          },
          "indices": 15,
          "material": 0,
          "mode": 4
        }
      ]
    },
    {
      "name": "Object_2",
      "primitives": [
        {
          "attributes": {
            "NORMAL": 17,
            "POSITION": 16,
            "TANGENT": 18,
            "TEXCOORD_0": 19,
            "TEXCOORD_1": 20,
            "TEXCOORD_2": 21,
            "TEXCOORD_3": 22
          },
          "indices": 23,
          "material": 0,
          "mode": 4
        }
      ]
    },
    {
      "name": "Object_3",
      "primitives": [
        {
          "attributes": {
            "NORMAL": 25,
            "POSITION": 24,
            "TANGENT": 26,
            "TEXCOORD_0": 27,
            "TEXCOORD_1": 28,
            "TEXCOORD_2": 29,
            "TEXCOORD_3": 30
          },
          "indices": 31,
          "material": 0,
          "mode": 4
        }
      ]
    }
  ],
  "nodes": [
    {
      "children": [
        1
      ],
      "matrix": [
        1.0,
        0.0,
        0.0,
        0.0,
        0.0,
        2.220446049250313e-16,
        -1.0,
        0.0,
        0.0,
        1.0,
        2.220446049250313e-16,
        0.0,
        0.0,
        0.0,
        0.0,
        1.0
      ],
      "name": "Sketchfab_model"
    },
    {
      "children": [
        2
      ],
      "name": "root"
    },
    {
      "children": [
        3
      ],
      "matrix": [
        1.0,
        0.0,
        0.0,
        0.0,
        0.0,
        2.220446049250313e-16,
        1.0,
        0.0,
        0.0,
        -1.0,
        2.220446049250313e-16,
        0.0,
        0.0,
        0.0,
        0.0,
        1.0
      ],
      "name": "GLTF_SceneRootNode"
    },
    {
      "children": [
        4,
        5,
        6,
        7
      ],
      "matrix": [
        1.0,
        0.0,
        0.0,
        0.0,
        0.0,
        0.0,
        1.0,
        0.0,
        0.0,
        -1.0,
        0.0,
        0.0,
        0.0,
        0.0,
        0.0,
        1.0
      ],
      "name": "texture_pbr_v128_0"
    },
    {
      "mesh": 0,
      "name": "Object_4"
    },
    {
      "mesh": 1,
      "name": "Object_5"
    },
    {
      "mesh": 2,
      "name": "Object_6"
    },
    {
      "mesh": 3,
      "name": "Object_7"
    }
  ],
  "samplers": [
    {
      "magFilter": 9729,
      "minFilter": 9987,
      "wrapS": 10497,
      "wrapT": 10497
    }
  ],
  "scene": 0,
  "scenes": [
    {
      "name": "Sketchfab_Scene",
      "nodes": [
        0
      ]
    }
  ],
  "textures": [
    {
      "sampler": 0,
      "source": 0
    },
    {
      "sampler": 0,
      "source": 1
    },
    {
      "sampler": 0,
      "source": 2
    }
  ]
}
