{
  "accessors": [
    {
      "bufferView": 2,
      "componentType": 5126,
      "count": 1214,
      "max": [
        0.44093000888824463,
        1.6658799648284912,
        0.23416000604629517
      ],
      "min": [
        -0.44093000888824463,
        0.0,
        -0.27028000354766846
      ],
      "type": "VEC3"
    },
    {
      "bufferView": 2,
      "byteOffset": 14568,
      "componentType": 5126,
      "count": 1214,
      "max": [
        0.9999998211860657,
        0.9999983906745911,
        0.9999995827674866
      ],
      "min": [
        -1.0,
        -0.9995615482330322,
        -0.9998399019241333
      ],
      "type": "VEC3"
    },
    {
      "bufferView": 1,
      "componentType": 5126,
      "count": 1214,
      "max": [
        0.9957299828529358,
        1.0002100467681885
      ],
      "min": [
        0.005779999773949385,
        0.00506999995559454
      ],
      "type": "VEC2"
    },
    {
      "bufferView": 0,
      "componentType": 5125,
      "count": 3957,
      "type": "SCALAR"
    }
  ],
  "asset": {
    "extras": {
      "author": "Ctool (https://sketchfab.com/ctool)",
      "license": "CC-BY-4.0 (http://creativecommons.org/licenses/by/4.0/)",
      "source": "https://sketchfab.com/3d-models/wizard-rpg-lowpoly-9741551bf01b42ac936a9e7c7d9b984b",
      "title": "Wizard RPG LowPoly"
    },
    "generator": "Sketchfab-12.66.0",
    "version": "2.0"
  },
  "bufferViews": [
    {
      "buffer": 0,
      "byteLength": 15828,
      "name": "floatBufferViews",
      "target": 34963
    },
    {
      "buffer": 0,
      "byteLength": 9712,
      "byteOffset": 15828,
      "byteStride": 8,
      "name": "floatBufferViews",
      "target": 34962
    },
    {
      "buffer": 0,
      "byteLength": 29136,
      "byteOffset": 25540,
      "byteStride": 12,
      "name": "floatBufferViews",
      "target": 34962
    }
  ],
  "buffers": [
    {
      "byteLength": 54676,
      "uri": "scene.bin"
    }
  ],
  "extensionsUsed": [
    "KHR_materials_unlit"
  ],
  "images": [
    {
      "uri": "textures/Skin_Traje.001_baseColor.png"
    }
  ],
  "materials": [
    {
      "doubleSided": true,
      "extensions": {
        "KHR_materials_unlit": {}
      },
      "name": "Skin_Traje.001",
      "pbrMetallicRoughness": {
        "baseColorTexture": {
          "index": 0
        },
        "metallicFactor": 0.0
      }
    }
  ],
  "meshes": [
    {
      "name": "Wizard_RPG_LowPoly_0",
      "primitives": [
        {
          "attributes": {
            "NORMAL": 1,
            "POSITION": 0,
            "TEXCOORD_0": 2
          },
          "indices": 3,
          "material": 0,
          "mode": 4
        }
      ]
    }
  ],
  "nodes": [
    {
      "children": [
        1
      ],
      "matrix": [
        1.1764706373214722,
        0.0,
        0.0,
        0.0,
        0.0,
        2.612289578699461e-16,
        -1.1764706373214722,
        0.0,
        0.0,
        1.1764706373214722,
        2.612289578699461e-16,
        0.0,
        0.0,
        0.0,
        0.0,
        1.0
      ],
      "name": "Sketchfab_model"
    },
    {
      "children": [
        2
      ],
      "name": "Root"
    },
    {
      "children": [
        3
      ],
      "matrix": [
        1.0,
        0.0,
        0.0,
        0.0,
        0.0,
        -0.0,
        1.0,
        0.0,
        0.0,
        -1.0,
        -0.0,
        0.0,
        0.0,
        0.0,
        0.0,
        1.0
      ],
      "name": "Wizard_RPG_LowPoly"
    },
    {
      "mesh": 0,
      "name": "Wizard_RPG_LowPoly_0"
    }
  ],
  "samplers": [
    {
      "magFilter": 9729,
      "minFilter": 9987,
      "wrapS": 10497,
      "wrapT": 10497
    }
  ],
  "scene": 0,
  "scenes": [
    {
      "name": "Sketchfab_Scene",
      "nodes": [
        0
      ]
    }
  ],
  "textures": [
    {
      "sampler": 0,
      "source": 0
    }
  ]
}
